<svg version="1.0" xmlns="http://www.w3.org/2000/svg" width="1401.333" height="793.333" viewBox="0 0 1051 595"><g fill="#fff"><path d="M660.5 157.9l-28 6.8-.3 133.7L632 432h58V291.5c0-77.3-.3-140.5-.7-140.4-.5.1-13.4 3.1-28.8 6.8zm6.2 253.7c-.3.3-1.2.4-1.9.1-.8-.3-.5-.6.6-.6 1.1-.1 1.7.2 1.3.5zM67.5 229.1c-18.2 2.4-34.1 9.2-45 19.1-11.1 10.2-15.9 20.3-17.1 36.2-2.3 28.9 9.7 47.7 37.4 58.8 7.6 3 41.5 12 50.2 13.3 2.5.4 7.7 1.6 11.5 2.7 13.9 4 18.5 7.9 18.5 15.5 0 5.7-2.1 9.6-6.3 11.6-5.1 2.4-17.2 4-26.7 3.5-17.1-1-25.2-7.5-29.5-23.8-.8-3.2-1.7-4.5-2.8-4.4-2.2.2-55.1 11.6-55.6 12-.2.2.9 4.3 2.3 9.1 8.9 28.9 30 45.8 63.3 50.8 12.5 1.9 39.6 1.9 53.3 0 34.8-4.7 54-18.3 59.6-42.1 2.3-9.8 1.5-32.5-1.4-40.6-5.5-15.4-18.2-27.3-37.5-35.5-8.8-3.7-19.7-6.8-41.3-11.7-27.4-6.2-37.3-11.6-36-19.4.3-1.9 1.1-4.1 1.8-5 5.8-7 32.9-8.3 44.8-2.2 1.9 1 4.7 3.1 6.3 4.7 2.6 2.8 6.7 12.4 6.7 15.8 0 .8.2 1.5.5 1.5 1.8 0 56.1-12.3 56.7-12.8 1-1.1-4.6-16.6-8.3-22.8-10.2-16.9-25.7-27.4-47.8-32.6-6.7-1.5-13.2-2-29.6-2.3-11.6-.2-24.1 0-28 .6zm204.1-.1c-34.6 5.4-59.3 25.2-69.2 55.5-2.3 6.9-2.8 10.2-3.2 23.7l-.4 15.8h93.7L281 312.5 269.5 301l9-9c4.9-4.9 9.4-9 10-9 .6 0 13.2 12.1 28 27l27 27-27 27c-14.8 14.8-27.4 27-28 27-.6 0-5.1-4.1-10-9l-9-9 11.5-11.5 11.5-11.5h-93.8l.6 10.2c.7 12.1 2.6 19.7 7.2 29.3 10 20.8 28.7 35.4 54.1 42.2 9.4 2.5 11.1 2.7 33.4 2.7 22.4 0 24-.1 33.5-2.7 36-9.7 57.5-33.5 61.6-68 .7-5.9.9-20.3.7-37.9-.5-32.6-1.4-37.9-8.3-52.3-10.3-21.4-28.3-35.4-54-42.1-8.9-2.3-12.3-2.7-30-3-11-.1-22.7.1-25.9.6zM417 301.7c0 76.3.4 83 5.3 96.5 7.4 20.4 21 30.4 46.7 34.3 24.1 3.7 43.1.8 68-10.4 5-2.3 9.5-3.9 9.9-3.7.4.3 2 3.5 3.5 7.1l2.8 6.5H601V231h-59l-.2 72.7-.3 72.8-10.3 5.2c-11.9 5.9-20.5 7.8-32.4 7-13.6-.9-19.5-6.1-21.7-19.2-.7-4-1.1-29.9-1.1-72.3V231h-59v70.7z"/><path d="M711.4 261.8c-2.9.4-3.7 3.8-1.8 7.3 1.7 3.4 5.6 9.2 7.5 11.3.8.8 3 3.4 4.9 5.7 3.7 4.5 5.2 6 12.4 12.7 2.5 2.4 4.6 4 4.6 3.8 0-.5 1.8.8 5.4 3.9.6.5 2.8 1.9 4.9 2.9 2 1.1 3.7 2.4 3.7 2.9 0 .6.3.7.7.4.9-1 3.4 1.4 2.7 2.5-2.1 3.4-2 30 .1 38.8.3 1.4.8 3.6 1.1 5 .3 1.4.8 3.4 1.1 4.5.4 1.1.7 2.4.8 3 .3 2.7 2.7 9.4 4.5 12.2 2.8 4.7 5.1 4.2 8.5-1.7 1.6-2.8 3.3-5 3.8-5 .4 0 .6-.4.3-.8-.3-.5.7-2.1 2.1-3.8 1.4-1.6 5-6.7 8.1-11.4 3-4.7 5.9-8.7 6.4-8.8.4-.2.6-.8.2-1.3-.3-.5 0-.9.5-.9.6 0 1.1-.7 1.1-1.5s.4-1.5 1-1.5c.5 0 1.2-1.1 1.6-2.5.3-1.4.9-2.5 1.3-2.5.3 0 2.4-2.9 4.6-6.5 2.2-3.6 4.3-6.5 4.8-6.5.4 0 .5-.5.2-1-.3-.6-.1-1 .4-1 .6 0 1.1-.6 1.1-1.4 0-.8.3-1.6.8-1.8.6-.2 3.5-4.4 7.7-10.9 5-7.8 9-13.5 9.7-13.7.4-.2.8-.9.8-1.6 0-.7 1.1-2.6 2.4-4.1 1.4-1.6 2.3-3.2 2-3.7-.3-.4-.2-.8.3-.8 1.7 0 6.5-8.9 5.8-10.9-.7-2.3-3.2-2.9-13.5-3.6-4.1-.3-10.9-.8-15-1-4.1-.3-10.6-.8-14.5-1-3.8-.3-10.1-.7-14-1-9.5-.6-25.8-1.6-32.5-2-3-.2-5.5-.4-5.5-.5 0-.1-3.1-.3-7-.5-3.8-.2-7-.4-7-.5 0-.1-3.4-.3-7.5-.4-4.2-.1-8-.4-8.5-.7-.6-.3-2-.3-3.1-.1z" fill="#8E6CD4"/><path d="M267.2 483.5c-2.1 3.3-2.1 3.5-.3 3.5 1 0 3.1-1.6 4.5-3.5l2.7-3.5h-2.3c-1.5 0-3.1 1.2-4.6 3.5zm-253.4-.8c-1.6.4-1.8 2.1-1.8 17.9 0 16.7.1 17.4 2 17.4s2-.7 2-18c0-9.9-.1-17.9-.2-17.9-.2.1-1.1.3-2 .6zm499 0c-2.5.6-2.3 3.3.2 3.3 1.3 0 2-.7 2-2 0-1.1-.1-1.9-.2-1.9-.2.1-1.1.3-2 .6zm-85.8 5.8c0 3.1-.3 3.5-2.5 3.5-1.6 0-2.5.6-2.5 1.5s.9 1.5 2.5 1.5c2.5 0 2.5 0 2.5 10 0 9.5.1 10 2.5 11.6 1.8 1.2 3.9 1.5 7 1.2 5.1-.6 7.5-2.2 7.5-4.9 0-2.5-2.1-2.4-4.3.2-1.3 1.4-2.7 1.9-5 1.7l-3.2-.3-.3-9.8-.3-9.7h5.6c4.2 0 5.5-.3 5.5-1.5s-1.3-1.5-5.5-1.5H431v-3.5c0-2.8-.4-3.5-2-3.5s-2 .7-2 3.5zm-337.5 4.8c-1.7.8-3.6 2.6-4.3 4.1-1.7 3.7-1.5 12.1.3 15.6 3 5.7 14.8 6.7 19.2 1.5 1.9-2.2 2.3-3.8 2.3-9.5 0-5.8-.4-7.3-2.3-9.6-2.8-3.2-10.4-4.3-15.2-2.1zM101 497c1.6 1.6 2 3.3 2 8 0 7.2-2.1 10-7.4 10-4.8 0-7.6-3.7-7.6-10s2.8-10 7.6-10c2.1 0 4.2.8 5.4 2zm76.5-2.5c-2.3 2.2-2.5 3.2-2.5 11 0 7.9.2 8.8 2.6 11.2 2.2 2.2 3.1 2.5 7.2 2 2.6-.3 5.6-.9 6.6-1.3 1.7-.7 1.9-.4 1.3 3.1-.3 2-1.4 4.6-2.3 5.6-2.3 2.6-7.8 2.5-10.3-.2-1.4-1.6-2.4-1.9-3.6-1.1-1.6.9-1.6 1.1.3 3 2.7 2.7 8.5 3.7 13.2 2.3 6-1.8 7-5 7-23 0-14.2-.1-15.1-1.9-15.1-1.1 0-2.1.5-2.3 1-.2.7-1.5.7-3.8 0-5.6-1.6-8.9-1.2-11.5 1.5zm13.6 1.5c1.6.9 1.9 2.2 1.9 9.5 0 9.4-.7 10.5-7.3 10.5-5.2 0-7.1-2.7-7.1-10.5 0-4.8.5-6.9 1.9-8.5 2-2.2 7.3-2.7 10.6-1zm72.9 9c0 12.3.1 13 2 13s2-.7 2-13-.1-13-2-13-2 .7-2 13zm76.2-12c-3.2 1.3-4.8 5.4-3.4 8.4.8 1.8 2.6 2.8 6.9 4 3.2.9 6.5 2 7.3 2.5 2 1.1 2.5 5.1.8 6.2-2.5 1.6-8.1 1-10.4-1.2-1.6-1.5-2.7-1.8-3.9-1.2-1.5.9-1.4 1.2.4 3.4 1.7 2.1 2.7 2.4 8.9 2.4 8.1 0 10.2-1.3 10.2-6.1 0-4.1-1.9-6-7.3-7.5-6.5-1.7-8.7-2.8-9.3-4.4-1.7-4.2 7-6.3 11-2.6 1.3 1.2 2.8 1.6 3.9 1.2 1.8-.7 1.8-.8-.1-3-1.5-1.9-3-2.5-7.3-2.7-3-.2-6.4.1-7.7.6zM511 505c0 12.3.1 13 2 13s2-.7 2-13-.1-13-2-13-2 .7-2 13zm77.5-11.6c-3.8 1.6-5.5 5.3-5.5 11.7 0 8.8 4 12.9 12.4 12.9 3.7 0 9.6-3.4 9.6-5.4 0-2.4-2.4-2.4-4.7.1-1.5 1.5-3.3 2.3-5.7 2.3-4.8 0-7.6-3.7-7.6-10s2.8-10 7.6-10c2.4 0 4.2.8 5.8 2.5 2.9 3.1 6.2 2.5 4.5-.7-2.2-4.2-10.7-5.9-16.4-3.4zm88.5-.7c-2 .8-5 3.4-5 4.3 0 1.8 3.2 1.8 5 0 2.4-2.4 8.2-2.6 10.5-.4 2.9 2.9 1.4 4.6-5.7 6.3-7.6 1.9-10.8 4.3-10.8 7.8 0 6.2 5.5 8.7 13.5 6.1 3.7-1.2 4.5-1.3 4.9-.1.3.7 1.2 1.3 2.1 1.3 1.2 0 1.5-1.7 1.5-10.4 0-13-1-14.8-9.1-15.2-3-.2-6.1-.1-6.9.3zm11.1 20.6c-1.6 1.6-9.9 2.1-11.6.7-1.9-1.6-1.9-5.4 0-7 .8-.7 3.8-1.7 6.7-2.4l5.3-1.2.3 4.5c.2 2.4-.1 4.8-.7 5.4z"/></g></svg>